<?xml version="1.0" encoding="UTF-8"?> <svg xmlns="http://www.w3.org/2000/svg" width="49.62" height="51.43" viewBox="0 0 49.62 51.43"><g id="Group_4323" data-name="Group 4323" transform="translate(-1306.846 -2699.012)"><g id="Group_4320" data-name="Group 4320" transform="translate(1307.203 2699.731)"><path id="Path_2280" data-name="Path 2280" d="M-4156.97,2872.468l6.3-5.2,6.2,5.2Z" transform="translate(4175.174 -2867.267)" fill="#d60644"></path><path id="Path_2282" data-name="Path 2282" d="M-4177.833,2888.625l-8.6,6.81v28.307a2.036,2.036,0,0,0,1.7,1.8c1.6.3,45.013,0,45.013,0s2.4-.3,2.4-2.2v-27.907l-9.1-6.81v12.312l-14.6,9.3-16.58-9.612Z" transform="translate(4186.436 -2875.429)" fill="#d60644"></path></g><g id="Group_4321" data-name="Group 4321" transform="translate(1306.846 2699.012)"><g id="Group_2755" data-name="Group 2755"><path id="Path_2255" data-name="Path 2255" d="M238.853,137.755V109.486l-8.722-7.144V94.935h-9.072l-6.874-5.84-7.064,5.8h-9.248v7.451l-8.634,7.144s.021,25.2,0,28.4a2.432,2.432,0,0,0,2.761,2.63h44.4C239.116,140.525,238.853,137.755,238.853,137.755Zm-8.634-33.923,7.1,5.7-7.1,4.821ZM214.047,90.508l5.3,4.332-10.24-.021ZM199.014,96.03h30.154v18.78l-14.416,9.56-15.737-9.56Zm-.964,7.8v10.212l-7.319-4.514Zm-6.793,34.759c-.891.42-.964-.573-.964-.573V110.757l23.448,14.069S197.417,134.656,191.256,138.591Zm44.694,1.015c-.822.022-43.182,0-43.182,0s-1.067.055-.573-.374l22.553-13.662,21.377,13.664S236.772,139.585,235.95,139.606Zm1.852-1.852s.025,1.191-1.116.435c-5.316-3.521-20.974-13.233-20.974-13.233l22.089-14.2Z" transform="translate(-189.24 -89.095)" fill="#fff"></path><path id="Path_2256" data-name="Path 2256" d="M251.765,124H232.437v7.232h19.328Zm-1.074,6.136H233.511V124.92h17.181Z" transform="translate(-217.291 -111.761)" fill="#fff"></path><rect id="Rectangle_1260" data-name="Rectangle 1260" width="18.145" height="0.964" transform="translate(15.738 21.925)" fill="#fff"></rect><rect id="Rectangle_1261" data-name="Rectangle 1261" width="18.145" height="0.964" transform="translate(15.738 25.343)" fill="#fff"></rect></g><path id="Path_2283" data-name="Path 2283" d="M-4172.348,2895.854v-19.523h31.209v20.105l-14.9,9.8Z" transform="translate(4181.409 -2870.012)" fill="#fff"></path></g></g></svg> 