<svg xmlns="http://www.w3.org/2000/svg" width="170.952" height="82.04" viewBox="0 0 170.952 82.04"><defs><style>.a,.c{fill:#fff;}.b{fill:none;}.c{fill-rule:evenodd;}</style></defs><g transform="translate(-1246.064 -2679.906)"><g transform="translate(1290.646 2681.602)"><path class="a" d="M71.546,121.814H68.563v-2.98a.277.277,0,0,0-.552,0v2.98H65.03a.277.277,0,1,0-.049.552.232.232,0,0,0,.049,0h2.981v2.982a.277.277,0,0,0,.552,0v-2.982h2.983a.277.277,0,1,0,.05-.552A.238.238,0,0,0,71.546,121.814Z" transform="translate(-64.728 -118.581)"/></g><path class="a" d="M86.517,129.795a3.067,3.067,0,1,0,3.067,3.067h0a3.065,3.065,0,0,0-3.064-3.067Zm0,5.548A2.483,2.483,0,1,1,89,132.86,2.483,2.483,0,0,1,86.517,135.343Z" transform="translate(1200.537 2556.7)"/><g transform="translate(1278.861 2705.939)"><path class="a" d="M151.524,121.521h-6.232a.73.73,0,0,0-.73.73v4.278a.73.73,0,0,0,.73.73h6.232a.73.73,0,0,0,.73-.73v-4.278A.73.73,0,0,0,151.524,121.521Zm.288,4.719a.588.588,0,0,1-.588.588h-5.632a.588.588,0,0,1-.588-.588v-3.7a.588.588,0,0,1,.588-.588h5.632a.588.588,0,0,1,.588.588Z" transform="translate(-136.096 -121.521)"/><path class="a" d="M151.524,139.021h-6.232a.73.73,0,0,0-.73.73v4.278a.73.73,0,0,0,.73.73h6.232a.73.73,0,0,0,.73-.73v-4.278A.73.73,0,0,0,151.524,139.021Zm.288,4.719a.588.588,0,0,1-.588.588h-5.632a.588.588,0,0,1-.588-.588v-3.7a.588.588,0,0,1,.588-.588h5.632a.588.588,0,0,1,.588.588Z" transform="translate(-136.096 -132.096)"/><path class="a" d="M129.284,121.521h-5.177a.94.94,0,0,0-.94.94v10.783a.94.94,0,0,0,.94.94h5.177a.94.94,0,0,0,.94-.94V122.461A.94.94,0,0,0,129.284,121.521Zm.453,11.463a.717.717,0,0,1-.717.717H124.37a.717.717,0,0,1-.717-.717V122.72a.717.717,0,0,1,.717-.717h4.649a.717.717,0,0,1,.717.717Z" transform="translate(-123.167 -121.521)"/><rect class="a" width="4.056" height="0.445" transform="translate(1.5 2.498)"/><rect class="a" width="4.056" height="0.445" transform="translate(1.5 4.905)"/><rect class="a" width="4.056" height="0.445" transform="translate(1.5 7.312)"/><rect class="a" width="4.056" height="0.445" transform="translate(1.5 9.719)"/></g><g transform="translate(1367.77 2733.98)"><path class="a" d="M399.154,188.826h-6.531a.764.764,0,0,0-.765.765v4.483a.765.765,0,0,0,.765.765h6.531a.765.765,0,0,0,.764-.765v-4.483A.764.764,0,0,0,399.154,188.826Zm.3,4.945a.616.616,0,0,1-.616.616h-5.9a.616.616,0,0,1-.616-.616v-3.878a.616.616,0,0,1,.616-.616h5.9a.616.616,0,0,1,.616.616Z" transform="translate(-382.986 -188.826)"/><path class="a" d="M399.154,206.326h-6.531a.764.764,0,0,0-.765.765v4.483a.765.765,0,0,0,.765.765h6.531a.764.764,0,0,0,.764-.765v-4.483A.764.764,0,0,0,399.154,206.326Zm.3,4.945a.616.616,0,0,1-.616.616h-5.9a.616.616,0,0,1-.616-.616v-3.878a.616.616,0,0,1,.616-.616h5.9a.616.616,0,0,1,.616.616Z" transform="translate(-382.986 -199.069)"/><path class="a" d="M376.872,188.826h-5.425a.985.985,0,0,0-.985.985v11.3a.985.985,0,0,0,.985.985h5.425a.985.985,0,0,0,.985-.985v-11.3A.985.985,0,0,0,376.872,188.826Zm.475,12.013a.751.751,0,0,1-.751.751h-4.872a.752.752,0,0,1-.752-.751V190.083a.752.752,0,0,1,.752-.751H376.6a.751.751,0,0,1,.751.751Z" transform="translate(-370.462 -188.826)"/><rect class="a" width="4.25" height="0.467" transform="translate(1.572 2.618)"/><rect class="a" width="4.25" height="0.467" transform="translate(1.572 5.14)"/><rect class="a" width="4.25" height="0.467" transform="translate(1.572 7.663)"/><rect class="a" width="4.25" height="0.467" transform="translate(1.572 10.185)"/></g><g transform="translate(1246.064 2716.445)"><g transform="translate(0.987 3.092)"><path class="a" d="M46.334,169.885l-13.426,4.149a.488.488,0,0,0-.322.61l2.863,9.264a.488.488,0,0,0,.61.322l13.426-4.149a.488.488,0,0,0,.322-.61l-2.863-9.264A.488.488,0,0,0,46.334,169.885Zm.144.466,2.4,7.779-6.453-3.412a.242.242,0,0,0-.327.1h0l-1.487,2.817-1.6-.846a.242.242,0,0,0-.327.1h0L35.6,182.739,33.052,174.5ZM35.913,183.761l-.113-.368L39,177.33l3.423,1.807a.242.242,0,1,0,.226-.428l-1.607-.846,1.374-2.6,6.666,3.522.257.831Z" transform="translate(-32.564 -169.864)"/><path class="a" d="M60.983,194.709a.242.242,0,1,0-.226.428l.3.16a.242.242,0,0,0,.226-.428Z" transform="translate(-50.293 -185.541)"/><path class="a" d="M46.289,182.672a1.212,1.212,0,1,0-1.516-.8,1.212,1.212,0,0,0,1.516.8Zm-.572-1.853a.727.727,0,1,1-.48.909h0a.727.727,0,0,1,.481-.906Z" transform="translate(-40.243 -176.457)"/><path class="a" d="M60.529,175.871l.231-.071a.244.244,0,0,0-.144-.466l-.231.071a.244.244,0,1,0,.144.466Z" transform="translate(-50.03 -173.312)"/><path class="a" d="M63.043,174.112l2.085-.644a.244.244,0,0,0-.144-.466l-2.085.644a.244.244,0,1,0,.144.466Z" transform="translate(-51.618 -171.839)"/></g><rect class="b" width="15.614" height="15.614" transform="translate(0 4.61) rotate(-17.171)"/></g><g transform="translate(1365.205 2705.486) rotate(-20)"><g transform="translate(0.016 3.29)"><path class="a" d="M372.572,121.768l-15.776-.092a.548.548,0,0,0-.551.545l-.064,10.885a.548.548,0,0,0,.544.551l15.776.092a.548.548,0,0,0,.551-.544l.064-10.885A.548.548,0,0,0,372.572,121.768Zm0,.548-.053,9.14-5.757-5.833a.272.272,0,0,0-.385,0h0l-2.543,2.514-1.432-1.448a.272.272,0,0,0-.384,0h0l-5.277,5.22.057-9.68ZM356.73,133.1l0-.432,5.475-5.411,3.055,3.091a.272.272,0,1,0,.387-.382l-1.435-1.448,2.35-2.323,5.947,6.022-.006.976Z" transform="translate(-356.182 -121.676)"/><path class="a" d="M379.721,142.952a.272.272,0,1,0-.387.382l.27.273a.272.272,0,0,0,.387-.382Z" transform="translate(-369.717 -134.109)"/><path class="a" d="M368.848,127.766A1.361,1.361,0,1,0,367.5,126.4a1.361,1.361,0,0,0,1.353,1.369Zm.013-2.177a.816.816,0,1,1-.821.812h0a.816.816,0,0,1,.821-.808Z" transform="translate(-362.818 -123.652)"/><path class="a" d="M384.895,125.019l.272,0a.274.274,0,0,0,0-.548l-.272,0a.274.274,0,1,0,0,.548Z" transform="translate(-372.864 -123.315)"/><path class="a" d="M387.526,125.035l2.45.014a.274.274,0,1,0,0-.548l-2.45-.014a.274.274,0,0,0,0,.548Z" transform="translate(-374.408 -123.325)"/></g><rect class="b" width="17.529" height="17.529" transform="translate(0 17.528) rotate(-89.666)"/></g><g transform="translate(1274.463 2729.13)"><g transform="translate(1.79 2.947)"><path class="a" d="M123.26,194.257l-5.194-1.317a.311.311,0,0,0-.335.073.36.36,0,0,0-.1.337l1.025,4.682a.357.357,0,0,0,.233.264.256.256,0,0,0,.175,0,.207.207,0,0,0,.126-.063l4.17-3.366a.3.3,0,0,0,.135-.344A.36.36,0,0,0,123.26,194.257Zm-1.321.85-2.442,1.972-.324.282-.79-3.612,4.007,1.016Z" transform="translate(-111.379 -188.923)"/><path class="a" d="M115.365,182.654l-12.226,2.675a2.048,2.048,0,0,0-1.589,2.42l0,.017-.032.007,1.815,8.3a2.069,2.069,0,0,0,2.458,1.553l12.259-2.682a2.047,2.047,0,0,0,1.589-2.42l0-.017-1.815-8.3a2.047,2.047,0,0,0-2.441-1.557ZM119,192.677a1.393,1.393,0,0,1-1.061,1.659l-.021,0-12.258,2.682a1.393,1.393,0,0,1-1.673-1.039l-.005-.021-.128-.586,15.019-3.285Zm-.267-1.22-15.019,3.285-1.549-7.077a1.393,1.393,0,0,1,1.062-1.659l.021,0-.007-.031,12.258-2.682a1.393,1.393,0,0,1,1.674,1.039l0,.021Z" transform="translate(-101.506 -182.601)"/></g><rect class="b" width="17.9" height="17.9" transform="translate(0 3.825) rotate(-12.34)"/></g><g transform="translate(1393.004 2723.966)"><g transform="translate(2.348 3.424)"><path class="a" d="M464.96,182.16l-4.057-4.006a.33.33,0,0,0-.346-.113.381.381,0,0,0-.274.255l-1.582,4.848a.382.382,0,0,0,.072.368.271.271,0,0,0,.161.092.22.22,0,0,0,.15.01l5.639-.842a.318.318,0,0,0,.309-.243A.382.382,0,0,0,464.96,182.16Zm-1.67.068-3.3.494-.449.084,1.22-3.74,3.129,3.091Z" transform="translate(-451.256 -174.133)"/><path class="a" d="M459.027,172.82l-12.659-4.13a2.178,2.178,0,0,0-2.762,1.365l-.006.018-.033-.011-2.8,8.591a2.2,2.2,0,0,0,1.419,2.749l12.691,4.142a2.178,2.178,0,0,0,2.761-1.365l.006-.019,2.8-8.591a2.178,2.178,0,0,0-1.4-2.743Zm-2.059,11.156a1.481,1.481,0,0,1-1.868.951l-.021-.007-12.692-4.142a1.482,1.482,0,0,1-.976-1.854l.007-.022.2-.606,15.55,5.074Zm.412-1.263-15.55-5.074,2.391-7.328a1.482,1.482,0,0,1,1.868-.951l.022.007.011-.033,12.691,4.142a1.482,1.482,0,0,1,.976,1.854l-.007.022Z" transform="translate(-440.663 -168.574)"/></g><rect class="b" width="19.044" height="19.044" transform="translate(0 18.105) rotate(-71.928)"/></g><g transform="translate(1363.844 2755.275)"><path class="a" d="M358.976,238.848h-2.834v-2.832a.264.264,0,0,0-.525,0v2.832h-2.832a.264.264,0,0,0-.047.525.305.305,0,0,0,.047,0h2.832v2.834a.264.264,0,0,0,.525,0v-2.834h2.834a.264.264,0,0,0,.047-.525A.3.3,0,0,0,358.976,238.848Z" transform="translate(-352.499 -235.776)"/></g><g transform="translate(22312 2495)"><g transform="translate(-20915.287 213.144)"><path class="a" d="M427.187,132.2h-3.154v-3.151a.293.293,0,0,0-.584,0V132.2H420.3a.293.293,0,1,0-.052.584.25.25,0,0,0,.052,0h3.152v3.154a.293.293,0,0,0,.584,0v-3.154h3.154a.293.293,0,1,0,.053-.584A.249.249,0,0,0,427.187,132.2Z" transform="translate(-419.978 -128.779)"/></g><path class="a" d="M436.187,116.972a3.243,3.243,0,1,0,3.243,3.243h0a3.241,3.241,0,0,0-3.24-3.243Zm0,5.866a2.625,2.625,0,1,1,2.625-2.625A2.625,2.625,0,0,1,436.187,122.838Z" transform="translate(-21342.25 90.724)"/></g><g transform="translate(1258.879 2745.402)"><g transform="translate(0.002 0)"><g transform="translate(0 0)"><path class="a" d="M7.218.19a.336.336,0,0,0-.475,0L.261,6.672a.336.336,0,1,0,.475.475L7.218.665A.336.336,0,0,0,7.218.19Z" transform="translate(-0.163 -0.092)"/></g></g><g transform="translate(0 0.002)"><path class="a" d="M1.6.256a1.6,1.6,0,1,0,1.6,1.6A1.6,1.6,0,0,0,1.6.256Zm0,2.519a.924.924,0,1,1,.924-.924A.925.925,0,0,1,1.6,2.775Z" transform="translate(0 -0.256)"/></g><g transform="translate(3.965 3.962)"><path class="a" d="M285.307,283.6a1.6,1.6,0,1,0,1.6,1.6A1.6,1.6,0,0,0,285.307,283.6Zm0,2.519a.924.924,0,1,1,.924-.924A.925.925,0,0,1,285.307,286.115Z" transform="translate(-283.712 -283.596)"/></g></g><path class="a" d="M5.927,3.985l.291.307-3.7,3.5a.346.346,0,0,0-.015.489h0l.031.033L.7,10.048a3.286,3.286,0,0,0-.459.56c-.428.678-.2,1.087-.029,1.269.217.23.659.282,1.475.174.505-.067.964-.172.984-.176a.347.347,0,0,0,.157-.086L4.4,10.3l.031.033a.346.346,0,0,0,.49.014l3.7-3.5.291.307a.347.347,0,0,0,.49.014L12.758,4A1.207,1.207,0,0,0,12.8,2.3L10.987.375a1.207,1.207,0,0,0-1.7-.047L5.937,3.5a.347.347,0,0,0-.014.49Zm-3.5,7.235a5.106,5.106,0,0,1-1.721.165c-.088-.148.217-.592.472-.834L3.007,8.822l.924.976-1.5,1.421ZM4.7,9.607,3.241,8.062,6.693,4.8,8.155,6.34,4.7,9.607ZM9.765.83a.512.512,0,0,1,.722.02L12.3,2.771a.512.512,0,0,1-.02.722l-3.1,2.931L6.67,3.76Z" transform="translate(1269.279 2686.324) rotate(76)"/><path class="c" d="M1.193,3.525a.266.266,0,0,0-.133-.27L.65,3.019,1.791,1.042l.41.237a.244.244,0,0,0,.3-.019A3.392,3.392,0,0,1,6.014.909a3.355,3.355,0,0,1,1.9,3.056A1.6,1.6,0,0,0,8.549,5.2l-.32.554L4.059,3.348a.278.278,0,1,0-.278.482L7.975,6.251l-.32.554a1.5,1.5,0,0,0-1.388.066,3.414,3.414,0,0,1-3.418.019A3.444,3.444,0,0,1,1.193,3.525ZM12.8,7.3,9.208,5.228,7.97,7.373l3.591,2.073a.338.338,0,0,0,.456-.122l.9-1.566A.339.339,0,0,0,12.8,7.3Zm-6.263.048a1.031,1.031,0,0,1,.839-.062l-.014.024a.263.263,0,0,0,.1.38L11.3,9.9a.9.9,0,0,0,1.217-.326l.9-1.566A.9.9,0,0,0,13.092,6.8L9.259,4.583a.263.263,0,0,0-.38.1l-.014.024A.973.973,0,0,1,8.5,3.951,3.879,3.879,0,0,0,6.282.389a3.957,3.957,0,0,0-3.933.3L1.843.4a.263.263,0,0,0-.38.1L.043,2.957a.263.263,0,0,0,.1.38l.506.292a3.925,3.925,0,0,0,5.887,3.72Z" transform="matrix(0.259, -0.966, 0.966, 0.259, 1365.504, 2692.98)"/></g></svg>