<?xml version="1.0" encoding="windows-1252"?>
<!-- Generator: Adobe Illustrator 19.0.0, SVG Export Plug-In . SVG Version: 6.00 Build 0)  -->
<svg version="1.1" id="Capa_1" xmlns="http://www.w3.org/2000/svg" xmlns:xlink="http://www.w3.org/1999/xlink" x="0px" y="0px" viewBox="0 0 512.256 512.256" style="enable-background:new 0 0 512.256 512.256;" xml:space="preserve">
<g transform="translate(-1 -1)">
	<g>
		<g>
			<path fill="#0d3b66" d="M293.765,245.989c3.919-4.928,6.065-11.032,6.093-17.328v-2.8c-0.098-14.543-11.132-26.679-25.6-28.156v-8.844     c0-4.713-3.821-8.533-8.533-8.533s-8.533,3.82-8.533,8.533v8.533h-17.067v-8.533c0-4.713-3.82-8.533-8.533-8.533     s-8.533,3.82-8.533,8.533v8.533h-8.533c-4.713,0-8.533,3.82-8.533,8.533s3.821,8.533,8.533,8.533h56.633     c6.358-0.058,11.562,5.042,11.633,11.4v2.8c-0.071,6.358-5.276,11.458-11.633,11.4h-31.033c0-4.713-3.82-8.533-8.533-8.533     s-8.533,3.82-8.533,8.533v25.6c0,4.713,3.82,8.533,8.533,8.533s8.533-3.82,8.533-8.533v-8.533h34.492     c9.104-0.109,16.578,7.171,16.708,16.275v1.583c-0.13,9.104-7.604,16.384-16.708,16.275h-60.092c-4.713,0-8.533,3.82-8.533,8.533     s3.821,8.533,8.533,8.533h8.533v8.533c0,4.713,3.82,8.533,8.533,8.533s8.533-3.82,8.533-8.533v-8.533h17.067v8.533     c0,4.713,3.82,8.533,8.533,8.533s8.533-3.82,8.533-8.533v-8.533h0.358c18.525,0.098,33.634-14.817,33.775-33.342v-1.583     C308.358,262.406,302.881,252.14,293.765,245.989z"/>
			<path fill="#0d3b66" d="M251.132,160.787c1.636,1.558,3.8,2.441,6.059,2.475c0.542-0.016,1.083-0.073,1.617-0.171     c0.566-0.082,1.115-0.255,1.625-0.512c0.524-0.171,1.015-0.432,1.45-0.771c0.508-0.338,0.942-0.679,1.367-1.021     c0.753-0.83,1.359-1.783,1.792-2.817c0.437-1.026,0.669-2.127,0.683-3.242c-0.018-2.262-0.904-4.431-2.475-6.059     c-0.425-0.341-0.858-0.683-1.367-1.025c-0.435-0.339-0.926-0.6-1.45-0.771c-0.51-0.258-1.059-0.43-1.625-0.508     c-2.78-0.518-5.64,0.34-7.675,2.304c-0.368,0.405-0.71,0.832-1.025,1.279c-0.324,0.474-0.582,0.99-0.767,1.533     c-0.246,0.485-0.42,1.003-0.517,1.537c-0.097,0.565-0.153,1.136-0.167,1.709c0.014,1.115,0.246,2.216,0.683,3.242     C249.773,159.004,250.379,159.956,251.132,160.787z"/>
			<path fill="#0d3b66" d="M263.25,353.469c-0.425-0.341-0.858-0.683-1.367-1.025c-0.435-0.339-0.926-0.6-1.45-0.771     c-0.51-0.258-1.059-0.43-1.625-0.508c-2.783-0.561-5.662,0.303-7.675,2.304c-0.753,0.829-1.359,1.78-1.792,2.813     c-0.438,1.027-0.67,2.13-0.683,3.246c0.014,0.571,0.07,1.141,0.167,1.704c0.096,0.535,0.271,1.053,0.517,1.537     c0.184,0.545,0.442,1.062,0.767,1.538c0.317,0.446,0.659,0.873,1.025,1.279c1.636,1.558,3.8,2.441,6.059,2.475     c0.542-0.016,1.083-0.073,1.617-0.171c0.566-0.082,1.115-0.255,1.625-0.513c0.524-0.171,1.015-0.432,1.45-0.771     c0.508-0.338,0.942-0.679,1.367-1.021c1.571-1.628,2.457-3.796,2.475-6.058c-0.013-1.116-0.245-2.219-0.683-3.246     C264.608,355.249,264.003,354.298,263.25,353.469z"/>
			<path fill="#0d3b66" d="M222.2,169.403L222.2,169.403c2.245,0.023,4.403-0.871,5.975-2.475c0.393-0.405,0.763-0.832,1.108-1.279     c0.258-0.513,0.517-0.938,0.767-1.45c0.175-0.513,0.341-1.108,0.517-1.621c0.097-0.565,0.152-1.136,0.167-1.708     c-0.007-2.255-0.931-4.41-2.558-5.971c-0.365-0.435-0.795-0.81-1.275-1.112c-0.433-0.254-0.942-0.513-1.45-0.767     c-0.517-0.171-1.117-0.341-1.625-0.513c-2.799-0.529-5.679,0.367-7.683,2.392c-2.443,2.434-3.171,6.105-1.842,9.287     C215.628,167.368,218.751,169.43,222.2,169.403z"/>
			<path fill="#0d3b66" d="M298.233,347.324c-0.385-0.413-0.813-0.784-1.275-1.108c-0.517-0.258-0.942-0.513-1.45-0.771     c-0.531-0.18-1.074-0.321-1.625-0.425c-1.094-0.254-2.231-0.254-3.325,0c-0.551,0.102-1.094,0.245-1.625,0.425     c-0.508,0.258-1.025,0.513-1.45,0.771c-0.482,0.302-0.914,0.676-1.283,1.108c-0.821,0.758-1.462,1.691-1.875,2.729     c-0.429,1.059-0.661,2.187-0.683,3.329c0.011,2.255,0.934,4.41,2.558,5.975c0.369,0.432,0.802,0.806,1.283,1.108     c0.425,0.254,0.942,0.513,1.45,0.767c0.528,0.21,1.071,0.382,1.625,0.513c0.533,0.1,1.074,0.157,1.617,0.171     c0.573-0.013,1.144-0.071,1.708-0.171c0.553-0.132,1.096-0.303,1.625-0.513c0.508-0.254,0.933-0.513,1.45-0.767     c0.462-0.324,0.89-0.695,1.275-1.108c1.605-1.571,2.499-3.729,2.475-5.975c0.01-1.137-0.19-2.266-0.592-3.329     C299.666,349.032,299.027,348.106,298.233,347.324z"/>
			<path fill="#0d3b66" d="M183.458,181.949c0.258,0.513,0.517,1.025,0.775,1.45c0.323,0.491,0.694,0.949,1.108,1.367     c0.785,0.767,1.71,1.375,2.725,1.792c1.055,0.447,2.188,0.679,3.333,0.683c2.232-0.045,4.365-0.929,5.975-2.475     c0.414-0.417,0.785-0.875,1.108-1.367c0.25-0.425,0.508-0.937,0.767-1.45c0.167-0.513,0.341-1.025,0.508-1.621     c0.103-0.534,0.162-1.077,0.175-1.621c-0.013-0.573-0.071-1.145-0.175-1.708c-0.167-0.513-0.342-1.109-0.508-1.622     c-0.258-0.513-0.517-0.938-0.767-1.45c-0.345-0.448-0.715-0.876-1.108-1.283c-0.806-0.766-1.729-1.399-2.733-1.875     c-2.108-0.854-4.467-0.854-6.575,0c-1.002,0.476-1.922,1.109-2.725,1.875c-0.393,0.407-0.763,0.835-1.108,1.283     c-0.258,0.513-0.517,0.938-0.775,1.45c-0.167,0.513-0.341,1.108-0.508,1.621c-0.097,0.565-0.153,1.136-0.167,1.708     c0.014,0.544,0.07,1.086,0.166,1.621C183.116,180.924,183.291,181.436,183.458,181.949z"/>
			<path fill="#0d3b66" d="M327.758,328.465c-0.464-0.291-0.948-0.547-1.45-0.767c-0.526-0.21-1.066-0.382-1.617-0.513     c-2.509-0.496-5.108,0.153-7.089,1.771c-1.981,1.617-3.137,4.034-3.153,6.592c0.022,1.141,0.253,2.268,0.683,3.325     c0.412,1.04,1.053,1.974,1.875,2.733c1.572,1.603,3.73,2.497,5.975,2.475c0.575,0.028,1.151-0.029,1.708-0.171     c0.549-0.104,1.089-0.247,1.617-0.429c0.503-0.249,0.987-0.533,1.45-0.85c0.467-0.289,0.898-0.634,1.283-1.025     c0.796-0.781,1.432-1.71,1.875-2.733c0.404-1.062,0.608-2.189,0.6-3.325c0.005-2.267-0.884-4.444-2.475-6.059     C328.616,329.149,328.183,328.807,327.758,328.465z"/>
			<path fill="#0d3b66" d="M162.466,199.869c-1.591,1.615-2.48,3.792-2.475,6.059c-0.015,1.109,0.189,2.211,0.6,3.242     c0.463,1.037,1.097,1.989,1.875,2.817c1.628,1.57,3.797,2.455,6.059,2.475c3.448-0.013,6.549-2.102,7.858-5.292     c0.435-1.026,0.664-2.127,0.674-3.241c-0.022-2.277-0.942-4.454-2.558-6.059C171.11,196.711,165.855,196.711,162.466,199.869z"/>
			<path fill="#0d3b66" d="M351.908,302.269c-2.013-2.001-4.892-2.865-7.675-2.304c-0.566,0.077-1.116,0.249-1.625,0.508     c-0.524,0.171-1.015,0.432-1.45,0.771c-0.479,0.272-0.912,0.618-1.283,1.025c-1.609,1.606-2.513,3.785-2.513,6.058     c0,2.273,0.904,4.453,2.513,6.058c0.371,0.406,0.805,0.75,1.283,1.021c0.435,0.339,0.926,0.6,1.45,0.771     c0.51,0.259,1.059,0.432,1.625,0.513c0.534,0.098,1.074,0.155,1.617,0.171c2.263-0.016,4.432-0.902,6.059-2.475     c0.753-0.83,1.359-1.783,1.792-2.817c0.911-2.067,0.911-4.421,0-6.487C353.267,304.049,352.661,303.098,351.908,302.269z"/>
			<path fill="#0d3b66" d="M156.324,247.911L156.324,247.911c2.282-0.006,4.465-0.93,6.059-2.562c1.569-1.594,2.456-3.735,2.475-5.971     c0.032-1.148-0.202-2.287-0.683-3.329c-0.413-1.018-1.022-1.945-1.792-2.729c-3.389-3.158-8.644-3.158-12.033,0     c-0.822,0.758-1.463,1.69-1.875,2.729c-0.438,1.056-0.67,2.186-0.683,3.329C147.905,244.042,151.659,247.797,156.324,247.911z"/>
			<path fill="#0d3b66" d="M365.908,271.632c-0.173-0.524-0.436-1.015-0.775-1.45c-0.301-0.481-0.675-0.913-1.108-1.279     c-2.017-1.998-4.88-2.89-7.675-2.392c-0.517,0.171-1.108,0.341-1.625,0.513c-0.508,0.258-0.942,0.513-1.45,0.771     c-0.447,0.346-0.876,0.716-1.283,1.108c-1.601,1.572-2.494,3.727-2.475,5.971c-0.029,0.575,0.03,1.151,0.175,1.708     c0.102,0.55,0.245,1.091,0.425,1.621c0.235,0.512,0.523,0.998,0.858,1.45c0.261,0.484,0.605,0.918,1.017,1.283     c0.409,0.391,0.837,0.761,1.283,1.108c0.508,0.254,0.942,0.513,1.45,0.767c0.531,0.182,1.074,0.325,1.625,0.429     c0.556,0.138,1.128,0.194,1.7,0.167c2.245,0.025,4.403-0.867,5.975-2.471c0.414-0.387,0.785-0.817,1.108-1.283     c0.322-0.446,0.583-0.934,0.775-1.45c0.244-0.514,0.416-1.059,0.508-1.621c0.097-0.565,0.153-1.136,0.167-1.708     c-0.014-0.544-0.07-1.086-0.167-1.621C366.324,272.691,366.152,272.146,365.908,271.632z"/>
			<path fill="#0d3b66" d="M162.383,280.936c0.769-0.786,1.378-1.714,1.792-2.733c0.481-1.042,0.715-2.182,0.683-3.329     c-0.019-2.236-0.907-4.377-2.475-5.971c-3.373-3.2-8.661-3.2-12.033,0c-1.624,1.563-2.546,3.717-2.558,5.971     c0.013,1.143,0.245,2.273,0.683,3.329c0.413,1.039,1.054,1.973,1.875,2.733c1.574,1.601,3.73,2.493,5.975,2.471     c0.575,0.027,1.15-0.029,1.708-0.167c0.521-0.104,1.034-0.248,1.533-0.429c0.517-0.254,1.025-0.513,1.542-0.767     C161.554,281.699,161.979,281.329,162.383,280.936z"/>
			<path fill="#0d3b66" d="M351.991,233.32c-1.604,1.606-2.496,3.789-2.475,6.059c-0.029,0.546,0.031,1.093,0.175,1.621     c0.092,0.552,0.234,1.095,0.425,1.621c0.235,0.512,0.523,0.998,0.858,1.45c0.239,0.497,0.587,0.934,1.017,1.279     c0.408,0.393,0.836,0.765,1.283,1.112c0.508,0.254,0.942,0.513,1.45,0.767c0.517,0.171,1.108,0.341,1.625,0.513     c0.562,0.098,1.13,0.155,1.7,0.171c2.257-0.007,4.414-0.932,5.975-2.562c0.433-0.367,0.807-0.798,1.108-1.279     c0.339-0.435,0.602-0.926,0.775-1.45c0.256-0.509,0.428-1.057,0.508-1.621c0.097-0.535,0.152-1.077,0.167-1.621     c-0.014-0.573-0.07-1.144-0.167-1.708c-0.093-0.561-0.264-1.107-0.508-1.621c-0.192-0.516-0.453-1.004-0.775-1.45     c-0.324-0.464-0.695-0.892-1.108-1.279c-2.014-2.001-4.892-2.865-7.675-2.304c-0.552,0.101-1.095,0.243-1.625,0.425     c-0.508,0.258-0.942,0.512-1.45,0.767C352.827,232.555,352.399,232.926,351.991,233.32z"/>
			<path fill="#0d3b66" d="M162.466,302.269c-3.3,3.365-3.3,8.752,0,12.117c1.629,1.57,3.797,2.455,6.059,2.475c3.463,0.01,6.587-2.08,7.899-5.285     c1.312-3.205,0.551-6.885-1.924-9.307C171.11,299.11,165.855,299.11,162.466,302.269z"/>
			<path fill="#0d3b66" d="M344.233,197.566c-0.566,0.077-1.116,0.249-1.625,0.508c-0.524,0.171-1.015,0.432-1.45,0.771     c-0.459,0.3-0.889,0.643-1.283,1.025c-0.394,0.404-0.764,0.832-1.108,1.279c-0.32,0.476-0.578,0.991-0.767,1.533     c-0.211,0.498-0.38,1.012-0.508,1.538c-0.099,0.564-0.158,1.135-0.175,1.708c0.027,2.277,0.945,4.452,2.558,6.059     c0.393,0.381,0.823,0.723,1.283,1.021c0.435,0.339,0.926,0.6,1.45,0.771c0.51,0.259,1.059,0.432,1.625,0.513     c0.534,0.098,1.074,0.155,1.617,0.171c0.573-0.016,1.144-0.073,1.708-0.171c0.533-0.095,1.05-0.268,1.533-0.513     c0.546-0.187,1.064-0.447,1.542-0.771c0.425-0.338,0.85-0.679,1.275-1.021c0.366-0.406,0.708-0.834,1.025-1.279     c0.325-0.475,0.582-0.992,0.767-1.538c0.246-0.485,0.42-1.003,0.517-1.538c0.222-1.127,0.222-2.286,0-3.412     c-0.096-0.535-0.27-1.053-0.517-1.538c-0.185-0.543-0.443-1.059-0.767-1.533c-0.315-0.447-0.657-0.874-1.025-1.279     C349.872,197.906,347.013,197.048,344.233,197.566z"/>
			<path fill="#0d3b66" d="M199.25,332.307c-0.258-0.513-0.517-1.025-0.767-1.454c-0.301-0.481-0.675-0.913-1.108-1.279     c-0.76-0.821-1.694-1.462-2.733-1.875c-2.108-0.854-4.467-0.854-6.575,0c-1.037,0.413-1.969,1.054-2.725,1.875     c-0.433,0.367-0.807,0.798-1.108,1.279c-0.258,0.429-0.517,0.942-0.775,1.454c-0.167,0.508-0.341,1.021-0.508,1.621     c-0.097,0.535-0.152,1.077-0.167,1.621c0.006,2.281,0.928,4.464,2.558,6.059c0.78,0.794,1.705,1.43,2.725,1.875     c1.06,0.421,2.193,0.625,3.333,0.6c1.11,0.017,2.212-0.187,3.242-0.6c1.022-0.445,1.95-1.081,2.733-1.875     c1.627-1.597,2.548-3.779,2.558-6.059c-0.013-0.544-0.072-1.086-0.175-1.621C199.591,333.328,199.416,332.815,199.25,332.307z"/>
			<path fill="#0d3b66" d="M317.007,184.678c1.563,1.627,3.719,2.552,5.975,2.562c0.573-0.016,1.144-0.073,1.708-0.171     c0.56-0.094,1.104-0.267,1.617-0.513c0.517-0.187,1.005-0.447,1.45-0.771c0.449-0.344,0.878-0.714,1.283-1.108     c0.795-0.78,1.432-1.707,1.875-2.729c1.248-3.201,0.516-6.836-1.875-9.304c-0.384-0.391-0.815-0.734-1.283-1.021     c-0.463-0.319-0.947-0.604-1.45-0.854c-0.528-0.182-1.068-0.325-1.617-0.429c-3.094-0.665-6.301,0.452-8.312,2.895     c-2.012,2.443-2.492,5.804-1.246,8.713C315.545,182.987,316.186,183.92,317.007,184.678z"/>
			<path fill="#0d3b66" d="M228.174,347.324c-3.389-3.158-8.644-3.158-12.033,0c-0.795,0.781-1.431,1.707-1.875,2.729     c-0.411,1.061-0.615,2.191-0.6,3.329c-0.015,1.109,0.189,2.211,0.6,3.242c0.444,1.023,1.08,1.951,1.875,2.733     c1.575,1.635,3.747,2.558,6.017,2.558s4.442-0.924,6.017-2.558c0.795-0.782,1.431-1.71,1.875-2.733     c0.442-1.024,0.674-2.126,0.683-3.242c-0.018-1.143-0.25-2.272-0.683-3.329C229.606,349.031,228.969,348.104,228.174,347.324z"/>
			<path fill="#0d3b66" d="M287.483,168.04c0.425,0.254,0.942,0.508,1.45,0.767c0.53,0.182,1.073,0.324,1.625,0.425     c0.527,0.141,1.072,0.199,1.617,0.171c0.575,0.028,1.151-0.029,1.708-0.171c0.551-0.102,1.094-0.244,1.625-0.425     c0.508-0.258,0.933-0.513,1.45-0.767c0.464-0.324,0.891-0.697,1.275-1.112c3.3-3.331,3.3-8.698,0-12.029     c-0.384-0.415-0.811-0.788-1.275-1.112c-0.466-0.286-0.951-0.542-1.45-0.767c-0.529-0.207-1.072-0.379-1.625-0.513     c-1.102-0.171-2.223-0.171-3.325,0c-0.553,0.133-1.096,0.304-1.625,0.513c-0.508,0.254-1.025,0.513-1.45,0.767     c-0.483,0.302-0.916,0.678-1.283,1.112c-1.635,1.574-2.558,3.745-2.558,6.015c0,2.269,0.924,4.441,2.558,6.015     C286.567,167.363,287,167.738,287.483,168.04z"/>
			<path fill="#0d3b66" d="M470.524,274.195c9.421-0.011,17.056-7.645,17.067-17.067v-26.812c16.638-4.267,27.495-20.255,25.327-37.294     c-2.168-17.039-16.684-29.797-33.86-29.761c-17.176-0.036-31.692,12.723-33.86,29.761c-2.168,17.039,8.689,33.026,25.327,37.294     v26.812h-68.267c0.105-38.495-15.196-75.431-42.492-102.575c-5.365-5.29-11.129-10.159-17.242-14.563v-10.862h119.467     c9.421-0.011,17.056-7.645,17.067-17.067V93.783c16.643-4.297,27.494-20.299,25.328-37.35     C502.22,39.381,487.713,26.6,470.524,26.6s-31.695,12.781-33.861,29.832c-2.166,17.051,8.685,33.053,25.328,37.35v18.278H342.524     c-9.392,0.013-17.012,7.604-17.059,16.996c-18.472-9.802-38.859-15.461-59.741-16.58V94.995h34.133     c9.421-0.011,17.056-7.646,17.067-17.067v-9.745c16.643-4.297,27.494-20.299,25.328-37.35C340.086,13.781,325.579,1,308.391,1     s-31.695,12.781-33.861,29.832c-2.166,17.051,8.685,33.053,25.328,37.35v9.745h-34.133c-9.421,0.011-17.056,7.646-17.067,17.067     v17.482c-11.575,0.612-23.034,2.609-34.133,5.95V52.328c-0.011-9.421-7.646-17.056-17.067-17.067h-86.545     c-4.297-16.643-20.299-27.494-37.35-25.328C56.511,12.099,43.73,26.606,43.73,43.795S56.511,75.49,73.562,77.656     c17.051,2.166,33.053-8.685,37.35-25.328h86.545v72.687c-37.951,17.085-66.719,49.67-78.968,89.446H43.858v-43.878     c16.643-4.297,27.494-20.299,25.328-37.35C67.02,116.181,52.513,103.4,35.324,103.4c-17.188,0-31.695,12.781-33.861,29.832     c-2.166,17.051,8.685,33.053,25.328,37.35v43.878c0.011,9.421,7.646,17.056,17.067,17.067h70.621     c-1.534,8.448-2.322,17.014-2.355,25.6H95.058c-9.421,0.011-17.056,7.646-17.067,17.067v119.467h-9.745     c-4.297-16.643-20.299-27.494-37.35-25.328c-17.051,2.166-29.832,16.673-29.832,33.861s12.781,31.695,29.832,33.861     c17.051,2.166,33.053-8.685,37.35-25.328h9.745c9.421-0.011,17.056-7.646,17.067-17.067V274.195h18.161     c5.87,50.504,37.865,94.2,84.239,115.046v81.22h-52.412c-4.297-16.643-20.299-27.494-37.35-25.328     c-17.051,2.166-29.832,16.673-29.832,33.861s12.781,31.695,29.832,33.861c17.051,2.166,33.053-8.685,37.35-25.328h52.412     c9.421-0.011,17.056-7.645,17.067-17.067v-74.633c11.099,3.341,22.559,5.338,34.133,5.95v17.482     c0.011,9.421,7.646,17.056,17.067,17.067h59.733v9.745c-16.643,4.297-27.494,20.299-25.328,37.35     c2.166,17.051,16.673,29.832,33.861,29.832c17.188,0,31.695-12.781,33.861-29.832c2.166-17.051-8.685-33.053-25.328-37.35v-9.745     c-0.011-9.421-7.646-17.056-17.067-17.067h-59.733v-17.482c35.466-1.937,68.962-16.924,94.042-42.076     c10.142-10.119,18.735-21.68,25.5-34.308h68.192v86.545c-16.643,4.297-27.494,20.299-25.328,37.35     c2.166,17.051,16.673,29.832,33.861,29.832s31.695-12.781,33.861-29.832c2.166-17.051-8.685-33.053-25.328-37.35v-86.545     c-0.011-9.421-7.646-17.056-17.067-17.067h-60.617c4.157-10.995,6.952-22.458,8.322-34.133H470.524z M461.991,197.395     c0-9.426,7.641-17.067,17.067-17.067s17.067,7.641,17.067,17.067c-0.011,9.421-7.645,17.056-17.067,17.067     C469.632,214.461,461.991,206.82,461.991,197.395z M453.458,60.861c0-9.426,7.641-17.067,17.067-17.067     s17.067,7.641,17.067,17.067s-7.641,17.067-17.067,17.067C461.103,77.917,453.468,70.282,453.458,60.861z M291.324,35.261     c0-9.426,7.641-17.067,17.067-17.067s17.067,7.641,17.067,17.067s-7.641,17.067-17.067,17.067     C298.97,52.317,291.335,44.682,291.324,35.261z M77.991,60.861c-9.426,0-17.067-7.641-17.067-17.067s7.641-17.067,17.067-17.067     s17.067,7.641,17.067,17.067C95.047,53.216,87.412,60.85,77.991,60.861z M35.324,154.728     c-9.421-0.011-17.056-7.646-17.067-17.067c0-9.426,7.641-17.067,17.067-17.067s17.067,7.641,17.067,17.067     S44.75,154.728,35.324,154.728z M35.324,419.261c-9.426,0-17.067-7.641-17.067-17.067c0-9.426,7.641-17.067,17.067-17.067     s17.067,7.641,17.067,17.067C52.38,411.616,44.745,419.25,35.324,419.261z M112.124,496.061c-9.426,0-17.067-7.641-17.067-17.067     s7.641-17.067,17.067-17.067s17.067,7.641,17.067,17.067C129.18,488.416,121.546,496.05,112.124,496.061z M333.991,461.928     c9.421,0.011,17.056,7.645,17.067,17.067c0,9.426-7.641,17.067-17.067,17.067c-9.426,0-17.067-7.641-17.067-17.067     S324.565,461.928,333.991,461.928z M347.699,347.636c-43.179,43.176-110.844,49.838-161.614,15.913     c-50.77-33.926-70.506-98.99-47.138-155.404c23.368-56.414,83.332-88.464,143.221-76.551     c59.889,11.913,103.022,64.472,103.022,125.534C385.283,291.094,371.783,323.685,347.699,347.636z M461.991,427.795     c9.421,0.011,17.056,7.646,17.067,17.067c0,9.426-7.641,17.067-17.067,17.067c-9.426,0-17.067-7.641-17.067-17.067     S452.565,427.795,461.991,427.795z"/>
		</g>
	</g>
</g>
<g>
</g>
<g>
</g>
<g>
</g>
<g>
</g>
<g>
</g>
<g>
</g>
<g>
</g>
<g>
</g>
<g>
</g>
<g>
</g>
<g>
</g>
<g>
</g>
<g>
</g>
<g>
</g>
<g>
</g>
</svg>